HIERARCHY
ROOT SpineBase
{
  OFFSET 0.000000 0.000000 0.000000
  CHANNELS 6 Xposition Yposition Zposition Zrotation Xrotation Yrotation
  JOINT SpineMid
  {
    OFFSET 0.000000 28.014098 0.000000
    CHANNELS 3 Zrotation Xrotation Yrotation
    JOINT SpineShoulder
    {
      OFFSET -0.070459 20.760351 -0.534742
      CHANNELS 3 Zrotation Xrotation Yrotation
      JOINT Neck
      {
        OFFSET -0.041534 6.870629 -0.432241
        CHANNELS 3 Zrotation Xrotation Yrotation
        JOINT Head
        {
          OFFSET 0.778321 12.235794 0.927831
          CHANNELS 3 Zrotation Xrotation Yrotation
          End Site
          {
            OFFSET 0 0 0
          }
        }
      }
      JOINT ShoulderLeft
      {
        OFFSET -11.592250 -3.632274 -8.945782
        CHANNELS 3 Zrotation Xrotation Yrotation
        JOINT ElbowLeft
        {
          OFFSET -4.033394 -21.952861 -2.905867
          CHANNELS 3 Zrotation Xrotation Yrotation
          JOINT WristLeft
          {
            OFFSET 3.072830 -16.381066 -4.219292
            CHANNELS 3 Zrotation Xrotation Yrotation
            JOINT HandLeft
            {
              OFFSET 1.474650 -7.175159 -0.913389
              CHANNELS 3 Zrotation Xrotation Yrotation
              JOINT HandTipLeft
              {
                OFFSET 0.701687 -5.736809 -1.727059
                CHANNELS 3 Zrotation Xrotation Yrotation
                End Site
                {
                  OFFSET 0 0 0
                }
              }
              JOINT ThumbLeft
              {
                OFFSET -2.432011 -0.516706 -1.336985
                CHANNELS 3 Zrotation Xrotation Yrotation
                End Site
                {
                  OFFSET 0 0 0
                }
              }
            }
          }
        }
      }
      JOINT ShoulderRight
      {
        OFFSET 11.629865 -3.555289 4.724036
        CHANNELS 3 Zrotation Xrotation Yrotation
        JOINT ElbowRight
        {
          OFFSET 2.102643 -22.121715 0.763789
          CHANNELS 3 Zrotation Xrotation Yrotation
          JOINT WristRight
          {
            OFFSET 3.185597 -22.032895 -1.708750
            CHANNELS 3 Zrotation Xrotation Yrotation
            JOINT HandRight
            {
              OFFSET 0.671626 -7.735215 -0.477730
              CHANNELS 3 Zrotation Xrotation Yrotation
              JOINT HandTipRight
              {
                OFFSET -0.093642 -5.850650 0.176906
                CHANNELS 3 Zrotation Xrotation Yrotation
                End Site
                {
                  OFFSET 0 0 0
                }
              }
              JOINT ThumbRight
              {
                OFFSET 1.321736 -0.040955 -1.295349
                CHANNELS 3 Zrotation Xrotation Yrotation
                End Site
                {
                  OFFSET 0 0 0
                }
              }
            }
          }
        }
      }
    }
  }
  JOINT HipLeft
  {
    OFFSET -5.166537 0.411219 -5.059747
    CHANNELS 3 Zrotation Xrotation Yrotation
    JOINT KneeLeft
    {
      OFFSET -6.207022 -32.438108 2.272622
      CHANNELS 3 Zrotation Xrotation Yrotation
      JOINT AnkleLeft
      {
        OFFSET -4.455184 -28.041814 6.302890
        CHANNELS 3 Zrotation Xrotation Yrotation
        JOINT FootLeft
        {
          OFFSET 3.820907 -6.080271 3.476737
          CHANNELS 3 Zrotation Xrotation Yrotation
          End Site
          {
            OFFSET 0 0 0
          }
        }
      }
    }
  }
  JOINT HipRight
  {
    OFFSET 4.682690 0.827708 -0.894253
    CHANNELS 3 Zrotation Xrotation Yrotation
    JOINT KneeRight
    {
      OFFSET -4.952048 -31.847018 3.928541
      CHANNELS 3 Zrotation Xrotation Yrotation
      JOINT AnkleRight
      {
        OFFSET -1.224317 -28.885784 8.599451
        CHANNELS 3 Zrotation Xrotation Yrotation
        JOINT FootRight
        {
          OFFSET -3.783047 -6.884206 -5.730305
          CHANNELS 3 Zrotation Xrotation Yrotation
          End Site
          {
            OFFSET 0 0 0
          }
        }
      }
    }
  }
}
MOTION
Frames: 6
Frame Time: 0.033333
28.354192 67.360843 355.569827 -0.000000 0.000000 -22.924764 0.000000 0.000000 22.924764 -0.000000 0.000000 0.000000 -0.000000 0.000000 0.000000 0.000000 0.000000 0.000000 -0.000000 0.000000 0.000000 -0.000000 0.000000 0.000000 -0.000000 0.000000 0.000000 -0.000000 0.000000 0.000000 0.000000 0.000000 0.000000 0.000000 0.000000 0.000000 -0.000000 0.000000 0.000000 -0.000000 0.000000 0.000000 -0.000000 0.000000 0.000000 -0.000000 0.000000 0.000000 0.000000 0.000000 0.000000 0.000000 0.000000 0.000000 0.000000 0.000000 22.924764 -0.000000 0.000000 0.000000 -0.000000 0.000000 0.000000 0.000000 0.000000 0.000000 0.000000 0.000000 22.924764 -0.000000 0.000000 0.000000 -0.000000 0.000000 0.000000 0.000000 0.000000 0.000000
28.231230 67.144487 355.461756 -0.049804 0.160558 -23.903045 0.110589 -0.126607 23.903237 -0.000000 0.000000 0.000000 -0.000000 0.000000 0.000000 0.000000 0.000000 0.000000 -0.000000 0.000000 0.000000 -0.000000 0.000000 0.000000 -0.871103 -0.625066 -0.022376 1.783653 -0.675555 -0.421652 0.000000 0.000000 0.000000 0.000000 0.000000 0.000000 -0.000000 0.000000 0.000000 -0.000000 0.000000 0.000000 -1.555360 3.093752 0.406556 0.855538 -0.548363 -0.406508 0.000000 0.000000 0.000000 0.000000 0.000000 0.000000 -0.332443 -0.931332 23.954275 2.581492 1.789207 0.123543 0.791921 3.272499 4.085664 0.000000 0.000000 0.000000 0.110589 -0.126607 23.903237 -0.000000 0.000000 0.000000 -2.297940 1.529973 1.078986 0.000000 0.000000 0.000000
28.143598 66.972399 355.370192 -0.078247 0.300970 -24.786566 0.197219 -0.240438 24.787185 -0.000000 0.000000 0.000000 -1.020907 -0.350916 0.096580 0.000000 0.000000 0.000000 -0.000000 0.000000 0.000000 0.213816 0.944087 0.119969 -1.848897 -2.163979 -0.212213 3.240283 -1.217166 -0.760681 0.000000 0.000000 0.000000 0.000000 0.000000 0.000000 -0.000000 0.000000 0.000000 -0.000000 0.000000 0.000000 -2.901380 5.572198 0.803992 1.800461 -1.073493 -0.689421 0.000000 0.000000 0.000000 0.000000 0.000000 0.000000 -0.768460 -2.040600 24.888595 5.297687 3.671132 0.139988 0.963300 7.460871 8.348818 0.000000 0.000000 0.000000 1.242420 -0.658877 25.018050 -1.432331 1.827376 -0.443112 -3.432759 1.753621 2.084506 0.000000 0.000000 0.000000
28.091295 66.844579 355.295135 -0.085682 0.421997 -25.567386 0.259418 -0.343694 25.568479 -0.000000 0.000000 0.000000 -1.353433 -0.522320 0.129638 0.000000 0.000000 0.000000 -0.409872 0.803910 -0.090431 0.682955 0.421521 0.255718 -2.540299 -3.002263 -0.325619 4.351584 -1.629781 -1.014345 0.000000 0.000000 0.000000 0.000000 0.000000 0.000000 -0.000000 0.000000 0.000000 -0.000000 0.000000 0.000000 -4.015379 7.407323 1.151036 2.818101 -1.561655 -0.850988 0.000000 0.000000 0.000000 0.000000 0.000000 0.000000 -1.308529 -3.336954 25.714965 8.160121 5.640604 0.035188 0.299938 12.485607 12.770514 0.000000 0.000000 0.000000 1.675885 -0.869392 25.881985 -2.013966 2.417403 -0.606192 -4.385645 2.388319 2.685734 0.000000 0.000000 0.000000
28.074320 66.761026 355.236585 -0.072296 0.524245 -26.239380 0.296633 -0.438258 26.240845 -0.000000 0.000000 0.000000 -1.565657 -0.690384 0.153149 0.000000 0.000000 0.000000 -0.489719 0.946119 -0.104770 0.794108 0.441966 0.294998 -3.053869 -3.674784 -0.431762 5.102746 -1.919955 -1.178860 0.000000 0.000000 0.000000 0.000000 0.000000 0.000000 -0.000000 0.000000 0.000000 -0.000000 0.000000 0.000000 -4.876807 8.579539 1.412348 3.895027 -1.993956 -0.899558 0.000000 0.000000 0.000000 0.000000 0.000000 0.000000 -1.955710 -4.827780 26.421437 11.182732 7.691029 -0.206407 -1.413484 18.163369 17.366128 0.000000 0.000000 0.000000 1.982899 -1.014158 26.613768 -2.509595 2.791963 -0.736110 -4.797936 2.883132 2.976191 0.000000 0.000000 0.000000
28.092673 66.721742 355.194542 -0.038116 0.608175 -26.798107 0.308226 -0.525670 26.799723 -0.000000 0.000000 0.000000 -1.656772 -0.854734 0.167593 0.000000 0.000000 0.000000 -0.541453 1.025711 -0.111711 0.850051 0.411843 0.311955 -3.376643 -4.177667 -0.523220 5.482869 -2.094978 -1.249910 0.000000 0.000000 0.000000 0.000000 0.000000 0.000000 -0.000000 0.000000 0.000000 -0.000000 0.000000 0.000000 -5.466934 9.068089 1.559485 5.018871 -2.342850 -0.848394 0.000000 0.000000 0.000000 0.000000 0.000000 0.000000 -2.715802 -6.518148 26.996494 14.381626 9.813752 -0.601913 -4.371585 24.204623 22.187901 0.000000 0.000000 0.000000 2.161667 -1.100467 27.208032 -2.920210 2.951048 -0.836173 -4.659946 3.247216 2.948831 0.000000 0.000000 0.000000
